<mxfile host="app.diagrams.net" modified="2020-12-20T18:11:57.355Z" agent="5.0 (Macintosh; Intel Mac OS X 10_15_6) AppleWebKit/605.1.15 (KHTML, like Gecko) Version/14.0.1 Safari/605.1.15" etag="tPXL8JP_5TYbTAmlek0b" version="14.0.4" type="github">
  <diagram id="84_d3QQW9TCgtqa2I0Hy" name="Page-1">
    <mxGraphModel dx="1722" dy="988" grid="1" gridSize="10" guides="1" tooltips="1" connect="1" arrows="1" fold="1" page="1" pageScale="1" pageWidth="1169" pageHeight="827" math="0" shadow="0">
      <root>
        <mxCell id="0" />
        <mxCell id="1" parent="0" />
        <mxCell id="B_ndb_Hmr398XHAPis72-2" value="" style="html=1;shadow=0;dashed=0;align=center;verticalAlign=middle;shape=mxgraph.arrows2.uTurnArrow;dy=11;arrowHead=43;dx2=25;fillColor=#ffe6cc;strokeColor=#d79b00;" vertex="1" parent="1">
          <mxGeometry x="220" y="378" width="100" height="100" as="geometry" />
        </mxCell>
        <mxCell id="B_ndb_Hmr398XHAPis72-3" value="&lt;span style=&quot;font-size: 11px&quot;&gt;branch&lt;br&gt;&lt;/span&gt;commit" style="html=1;shadow=0;dashed=0;align=center;verticalAlign=middle;shape=mxgraph.arrows2.arrow;dy=0;dx=30;notch=29.57;fillColor=#dae8fc;strokeColor=#6c8ebf;fontSize=12;" vertex="1" parent="1">
          <mxGeometry x="390" y="365" width="110" height="60" as="geometry" />
        </mxCell>
        <mxCell id="B_ndb_Hmr398XHAPis72-5" value="design changes" style="html=1;shadow=0;dashed=0;align=center;verticalAlign=middle;shape=mxgraph.arrows2.arrow;dy=0;dx=30;notch=0;fillColor=#fff2cc;strokeColor=#d6b656;" vertex="1" parent="1">
          <mxGeometry x="300" y="365" width="110" height="60" as="geometry" />
        </mxCell>
        <mxCell id="B_ndb_Hmr398XHAPis72-8" value="validation&lt;br&gt;complete" style="html=1;shadow=0;dashed=0;align=center;verticalAlign=middle;shape=mxgraph.arrows2.arrow;dy=0;dx=30;notch=29.57;fillColor=#d5e8d4;strokeColor=#82b366;" vertex="1" parent="1">
          <mxGeometry x="736" y="365" width="110" height="60" as="geometry" />
        </mxCell>
        <mxCell id="B_ndb_Hmr398XHAPis72-9" value="implementation" style="html=1;shadow=0;dashed=0;align=center;verticalAlign=middle;shape=mxgraph.arrows2.arrow;dy=0;dx=10;notch=10;flipH=1;fillColor=#ffe6cc;strokeColor=#d79b00;" vertex="1" parent="1">
          <mxGeometry x="310" y="456" width="190" height="22" as="geometry" />
        </mxCell>
        <mxCell id="B_ndb_Hmr398XHAPis72-10" value="&lt;font style=&quot;font-size: 11px;&quot;&gt;debugging&lt;/font&gt;" style="html=1;shadow=0;dashed=0;align=center;verticalAlign=middle;shape=mxgraph.arrows2.arrow;dy=0;dx=10;notch=10;flipH=1;horizontal=1;fontSize=11;fillColor=#f8cecc;strokeColor=#b85450;" vertex="1" parent="1">
          <mxGeometry x="490" y="456" width="120" height="22" as="geometry" />
        </mxCell>
        <mxCell id="B_ndb_Hmr398XHAPis72-12" value="&lt;span style=&quot;font-size: 11px;&quot;&gt;debugging&lt;/span&gt;" style="html=1;shadow=0;dashed=0;align=center;verticalAlign=middle;shape=mxgraph.arrows2.arrow;dy=0;dx=10;notch=0;flipH=1;horizontal=1;fontSize=11;fillColor=#f8cecc;strokeColor=#b85450;" vertex="1" parent="1">
          <mxGeometry x="600" y="456" width="130" height="22" as="geometry" />
        </mxCell>
        <mxCell id="B_ndb_Hmr398XHAPis72-13" value="" style="endArrow=classic;html=1;fontSize=11;exitX=0;exitY=0;exitDx=40;exitDy=60;exitPerimeter=0;" edge="1" parent="1">
          <mxGeometry relative="1" as="geometry">
            <mxPoint x="540" y="426.5" as="sourcePoint" />
            <mxPoint x="540" y="454" as="targetPoint" />
          </mxGeometry>
        </mxCell>
        <mxCell id="B_ndb_Hmr398XHAPis72-14" value="❌" style="edgeLabel;resizable=0;html=1;align=center;verticalAlign=middle;fontSize=8;" connectable="0" vertex="1" parent="B_ndb_Hmr398XHAPis72-13">
          <mxGeometry relative="1" as="geometry" />
        </mxCell>
        <mxCell id="B_ndb_Hmr398XHAPis72-17" value="" style="endArrow=classic;html=1;fontSize=11;exitX=0;exitY=0;exitDx=40;exitDy=60;exitPerimeter=0;entryX=0.625;entryY=-0.061;entryDx=0;entryDy=0;entryPerimeter=0;" edge="1" parent="1">
          <mxGeometry relative="1" as="geometry">
            <mxPoint x="670" y="425.9999999999998" as="sourcePoint" />
            <mxPoint x="670" y="455.65800000000013" as="targetPoint" />
          </mxGeometry>
        </mxCell>
        <mxCell id="B_ndb_Hmr398XHAPis72-18" value="❌" style="edgeLabel;resizable=0;html=1;align=center;verticalAlign=middle;fontSize=8;" connectable="0" vertex="1" parent="B_ndb_Hmr398XHAPis72-17">
          <mxGeometry relative="1" as="geometry" />
        </mxCell>
        <mxCell id="B_ndb_Hmr398XHAPis72-19" value="master&lt;br&gt;deploy" style="html=1;shadow=0;dashed=0;align=center;verticalAlign=middle;shape=mxgraph.arrows2.arrow;dy=0;dx=30;notch=29.57;fillColor=#dae8fc;strokeColor=#6c8ebf;fontSize=11;" vertex="1" parent="1">
          <mxGeometry x="826" y="365" width="130" height="60" as="geometry" />
        </mxCell>
        <mxCell id="B_ndb_Hmr398XHAPis72-20" style="edgeStyle=orthogonalEdgeStyle;rounded=0;orthogonalLoop=1;jettySize=auto;html=1;entryX=0;entryY=0;entryDx=90;entryDy=22;entryPerimeter=0;fontSize=11;" edge="1" parent="1" target="B_ndb_Hmr398XHAPis72-9">
          <mxGeometry relative="1" as="geometry">
            <mxPoint x="410" y="500" as="sourcePoint" />
          </mxGeometry>
        </mxCell>
        <mxCell id="B_ndb_Hmr398XHAPis72-21" value="New functional unit" style="text;html=1;strokeColor=#9673a6;fillColor=#e1d5e7;align=center;verticalAlign=middle;whiteSpace=wrap;rounded=0;fontSize=11;" vertex="1" parent="1">
          <mxGeometry x="365" y="500" width="105" height="20" as="geometry" />
        </mxCell>
        <mxCell id="B_ndb_Hmr398XHAPis72-22" value="&lt;span style=&quot;color: rgb(0 , 0 , 0) ; font-size: 11px&quot;&gt;System test&lt;/span&gt;" style="html=1;shadow=0;dashed=0;align=center;verticalAlign=middle;shape=mxgraph.arrows2.arrow;dy=0;dx=29.14;notch=30.43;horizontal=1;fillColor=#f5f5f5;strokeColor=#666666;fontColor=#333333;strokeWidth=1;" vertex="1" parent="1">
          <mxGeometry x="608" y="365" width="146" height="60" as="geometry" />
        </mxCell>
        <mxCell id="B_ndb_Hmr398XHAPis72-24" value="&lt;span style=&quot;color: rgb(0 , 0 , 0) ; font-size: 11px&quot;&gt;Isolated verilog &lt;br&gt;test bench&lt;/span&gt;" style="html=1;shadow=0;dashed=0;align=center;verticalAlign=middle;shape=mxgraph.arrows2.arrow;dy=0;dx=29.14;notch=30.43;horizontal=1;strokeColor=#666666;strokeWidth=1;fillColor=#f5f5f5;fontColor=#333333;" vertex="1" parent="1">
          <mxGeometry x="480" y="365" width="146" height="60" as="geometry" />
        </mxCell>
      </root>
    </mxGraphModel>
  </diagram>
</mxfile>
